<svg xmlns="http://www.w3.org/2000/svg" shape-rendering="geometricPrecision" text-rendering="geometricPrecision" image-rendering="optimizeQuality" fill-rule="evenodd" clip-rule="evenodd" viewBox="0 0 512 398.66"><path fill-rule="nonzero" d="M41.17 251.8c.46-79.33.89-158.63 1.36-237.65 0-5.26 3.76-9.65 8.71-10.68v-.02c28.93-6.03 74.25-4.5 105.07 7.29 21.29 8.16 40.61 21.17 54.71 39.91 14.26-17.48 33.28-30.06 54.69-38.19 29.25-11.09 73.26-13.77 105-9.12 5.48.79 9.4 5.49 9.4 10.86h.02v83.28a148.25 148.25 0 0 0-20.25-1.39l-1.74.01V23.94c-25.41-2.42-61.83.37-84.72 9.04-21.39 8.11-39.82 21.44-51.8 40.54V192.2c-12.75 34.26-12.75 72.88 1.82 107.98 3.1 7.47 6.79 14.64 11.01 21.43-5.93 1.99-11.84 4.29-17.76 6.91a11.016 11.016 0 0 1-6.24 1.81c-2.23.04-4.4-.6-6.24-1.81-29.48-13.03-58.86-18.19-88.24-18-30.14.19-70.79 6.01-101.43 14.8-1.1.38-2.3.58-3.55.58C4.92 325.9 0 320.98 0 314.92V61.83c0-6.07 4.92-10.99 10.99-10.99h11v249.69c27.75-7.16 65.83-11.74 93.9-11.91 25.91-.15 51.83 3.44 77.78 12.23-16.15-13.07-34.14-22.66-53.32-28.9-24.17-7.9-60.57-10.52-87.32-8.22-6.05.48-11.36-3.99-11.86-10.04-.04-.65-.04-1.28 0-1.89zm321.87-127.61c32.67 0 63.87 12.94 86.93 36.02 31.91 31.89 43.77 78.9 30.93 122.08a122.178 122.178 0 0 1-12.5 28.27l42.06 46.31c2.18 2.4 2.03 6.12-.36 8.32l-34.97 31.92a5.84 5.84 0 0 1-8.29-.37l-39.96-44.5c-19.3 11.75-41.24 17.87-63.84 17.87-32.66 0-63.84-12.91-86.93-36.01a122.782 122.782 0 0 1-26.69-39.92c-19.06-45.9-8.23-99.05 26.69-133.97 11.3-11.3 24.83-20.44 39.93-26.67 14.49-6.03 30.37-9.35 47-9.35zm69.37 53.6c-27.99-28.02-70.43-36.43-106.9-21.32-65.44 27.08-80.48 111.46-31.86 160.05 28.06 27.98 70.42 36.44 106.93 21.33 36.7-15.25 60.56-50.96 60.56-90.71 0-13.31-2.62-25.99-7.39-37.51a98.38 98.38 0 0 0-21.34-31.84zm-33.5-76.46V50.84h10.99c6.08 0 10.99 4.92 10.99 10.99v47.45c-7.09-3.22-14.45-5.88-21.98-7.95zm-157.58 54.49a7.875 7.875 0 0 1 3.17-9.31c2.89-1.85 5.98-3.62 9.22-5.33-4.48 4.63-8.61 9.52-12.39 14.64zm11.81-56.7a7.894 7.894 0 0 1-10.89-2.43c-2.34-3.68-1.24-8.55 2.43-10.88 11.24-7.13 25.64-13.38 40.15-18.07 15.45-4.97 31.21-8.21 43.63-8.91 4.34-.23 8.06 3.09 8.29 7.43.23 4.33-3.09 8.05-7.42 8.28-11.12.63-25.46 3.6-39.69 8.19-13.25 4.26-26.35 9.95-36.5 16.39zm-75.9 108.28c3.65 2.37 4.68 7.26 2.32 10.89-2.36 3.63-7.25 4.68-10.88 2.31-10.05-6.53-23.26-12.33-36.72-16.72-14.48-4.72-29.12-7.8-40.39-8.43-4.33-.23-7.66-3.95-7.42-8.28.23-4.33 3.94-7.66 8.28-7.42 12.65.7 28.74 4.05 44.4 9.14 14.63 4.78 29.16 11.18 40.41 18.51zm-.84-60.89a7.862 7.862 0 0 1 2.4 10.86c-2.33 3.65-7.2 4.73-10.86 2.39-10.09-6.43-23.22-12.13-36.56-16.44-14.28-4.6-28.67-7.59-39.81-8.22-4.33-.23-7.66-3.94-7.42-8.28.23-4.33 3.94-7.66 8.28-7.43 12.45.7 28.28 3.96 43.75 8.95 14.51 4.68 28.93 10.97 40.22 18.17zm-.19-60.7a7.871 7.871 0 0 1 2.43 10.88c-2.33 3.68-7.2 4.76-10.88 2.43-10.16-6.44-23.26-12.13-36.5-16.39-14.23-4.59-28.57-7.56-39.69-8.19-4.33-.23-7.66-3.95-7.42-8.28.23-4.34 3.94-7.66 8.28-7.43 12.43.7 28.19 3.94 43.63 8.91 14.52 4.69 28.92 10.94 40.15 18.07zm23.43 192V73.2c-11.53-20.3-30.12-33.88-51.16-41.93-23.8-9.12-60.79-11.19-84.11-7.86l-1.24 217.71c25.44-.92 60.57 2.32 84 9.95 18.65 6.09 36.31 14.96 52.51 26.74z"/></svg>