<svg xmlns="http://www.w3.org/2000/svg" xml:space="preserve" viewBox="0 0 700.307 148.693"><path fill="#fff" d="M208.712 145.626H7.718l-5-10.666.5-132.163 208.827.5 6.5 8.5.334 127.83-10.167 6m83.935-63.154c0-14.824-2.804-18.63-6.009-21.634-2.605-2.402-8.412-3.606-12.82-3.606-5.206 0-13.62 2.604-19.23 11.618-2.402 4.007-2.801 7.814-2.801 13.423v39.66c0 3.204 1.2 5.208 4.005 5.208h7.21c1.803 0 2.003.402 2.003 1.803v3.204c0 1.403-.2 2.206-1.604 2.206-1.802 0-7.209-.602-18.226-.602-10.617 0-17.026.602-18.63.602-1.2 0-1.604-.403-1.604-1.804v-3.606c0-1.6.404-1.803 2.407-1.803h6.81c1.801 0 2.803-1.201 3.004-5.009.2-3.402.2-7.01.2-10.415V76.066c0-4.01-.801-7.615-5.61-10.22l-4.204-2.203c-1.003-.601-1.402-1-1.402-1.603v-1.6c0-.603.799-1.404 1.202-1.604l17.627-9.012c1.602-.803 3.004-1.202 3.804-1.202 1.203 0 1.803 1.4 1.803 2.804l.801 11.616h.603c6.009-8.212 17.826-15.222 29.444-15.222 10.417 0 18.43 6.01 22.637 15.422h1.001c6.01-7.81 17.425-15.422 29.444-15.422 7.013 0 13.22 1.201 18.029 6.01 4.606 4.807 9.614 9.212 9.614 24.638v44.668c0 3.004 1.803 4.006 4.207 4.006h5.407c1.804 0 2.202.402 2.202 1.803v3.407c0 1.401-.398 2.003-1.399 2.003-1.401 0-7.01-.602-16.626-.602-10.017 0-17.226.602-18.63.602-1.202 0-1.6-.602-1.6-2.003v-3.407c0-1.401.398-1.803 2.6-1.803h5.009c2.205 0 3.806-1.002 4.006-3.807.402-4.604.402-11.817.402-16.225V77.467c0-6.612-1.202-12.422-5.81-16.026-3.606-2.804-8.813-4.208-14.822-4.208-6.009 0-14.223 4.608-17.427 10.416-3.006 5.81-2.807 11.217-2.807 20.232v34.655c0 2.602 1.003 4.606 4.007 4.606h6.813c1.802 0 2.205.402 2.205 1.803v3.204c0 1.604-.403 2.206-1.404 2.206-1.403 0-6.612-.602-17.828-.602-10.817 0-17.627.602-18.828.602-1.002 0-1.403-.602-1.403-2.003v-3.207c0-1.601.201-2.003 2.004-2.003h5.806c3.208 0 4.408-.802 4.408-3.405V82.473m89.949-54.346c0-5.007 4.205-10.416 12.218-10.416 7.01 0 10.417 5.41 10.417 9.814 0 5.208-3.605 11.017-11.617 11.017-4.41 0-11.018-4.005-11.018-10.415zm9.014 47.336c0-6.811-1.2-10.418-11.22-12.019-1.4-.202-1.8-.602-1.8-1.404v-1.804c0-.598.4-1 1.4-1.4 6.411-2.402 14.023-5.61 21.636-9.815 1.6-.801 2.605-1.2 3.805-1.2 1.002 0 1.203 1 1.002 2.402-.402 3.406-.402 16.026-.402 32.65v21.835c0 7.81 0 15.023.203 17.226.4 3.806 1.001 5.208 3.204 5.208h9.212c1.603 0 2.002.602 2.002 1.803v3.407c0 1.401-.399 2.003-1.8 2.003-1.602 0-10.818-.602-19.229-.602-11.618 0-19.433.602-21.635.602-1.001 0-1.603-.403-1.603-1.605v-4.006c0-1.2.602-1.602 2.003-1.602h9.816c2.206 0 3.004-.802 3.208-4.006.198-6.009.198-12.22.198-18.229V75.463m48.479 5.007c0-10.216-1.601-12.218-7.213-15.223l-3.803-2.005c-1.204-.4-1.604-.6-1.604-1.401v-1.202c0-.802.4-1.2 1.604-1.803l19.832-10.214c1.201-.602 2.002-.802 2.801-.802 1.204 0 1.404 1.201 1.404 2.403l1.001 13.82h.8c6.01-9.213 15.424-17.424 24.037-17.424 6.812 0 10.216 4.206 10.216 8.813 0 5.806-4.805 9.815-8.412 9.815-2.204 0-4.207-.801-5.81-1.604-1.603-1-4.006-1.603-6.61-1.603-3.204 0-8.411 2.003-11.818 8.414-1.201 2.203-2.003 5.81-2.003 6.41v42.065c0 6.21 1.403 8.213 5.61 8.213h9.414c1.203 0 1.401.602 1.401 1.803v3.606c0 1.202-.198 1.804-1.001 1.804-1.201 0-10.417-.602-21.233-.602-12.42 0-20.833.602-22.034.602-.803 0-1.201-.403-1.201-2.003v-3.407c0-1.401.398-1.803 2.202-1.803h7.812c3.007 0 4.41-1.201 4.41-3.807.198-6.608.198-13.62.198-24.036V80.47m64.3 0c0-10.216-1.603-12.218-7.213-15.223l-3.804-2.005c-1.203-.4-1.603-.6-1.603-1.401v-1.202c0-.802.4-1.2 1.603-1.803l19.83-10.214c1.202-.602 2.002-.802 2.804-.802 1.202 0 1.402 1.201 1.402 2.403l1.002 13.82h.802c6.01-9.213 15.42-17.424 24.034-17.424 6.814 0 10.217 4.206 10.217 8.813 0 5.806-4.806 9.815-8.413 9.815-2.2 0-4.205-.801-5.809-1.604-1.604-1-4.005-1.603-6.61-1.603-3.206 0-8.41 2.003-11.819 8.414-1.201 2.203-2.002 5.81-2.002 6.41v42.065c0 6.21 1.404 8.213 5.609 8.213h9.416c1.201 0 1.401.602 1.401 1.803v3.606c0 1.202-.2 1.804-1.001 1.804-1.202 0-10.417-.602-21.234-.602-12.419 0-20.832.602-22.035.602-.8 0-1.2-.403-1.2-2.003v-3.407c0-1.401.4-1.803 2.202-1.803h7.813c3.005 0 4.405-1.201 4.405-3.807.203-6.608.203-13.62.203-24.036V80.47m115.58 9.616c0-22.236-16.224-36.257-26.443-36.257-5.405 0-10.615 1.201-15.42 6.407-7.81 8.016-10.618 16.228-10.618 31.45 0 11.219 1.202 18.83 7.611 28.045 4.608 6.61 10.418 10.415 19.831 10.415 15.225 0 25.04-18.628 25.04-40.06zm-57.89 32.248c-9.214-11.017-11.015-18.427-11.015-32.652 0-10.213 5.407-23.034 17.226-32.246 10.416-8.016 20.23-9.616 26.84-9.616 11.019 0 22.036 5.61 28.044 11.618 9.013 9.214 13.62 19.631 13.62 32.65 0 21.835-19.628 44.067-44.267 44.067-9.616 0-22.032-3.803-30.448-13.821m89.142-41.864c0-10.216-1.603-12.218-7.213-15.223l-3.804-2.005c-1.203-.4-1.604-.6-1.604-1.401v-1.202c0-.802.401-1.2 1.604-1.803l19.83-10.214c1.203-.602 2.004-.802 2.804-.802 1.203 0 1.403 1.201 1.403 2.403l1.001 13.82h.803c6.009-9.213 15.42-17.424 24.035-17.424 6.81 0 10.214 4.206 10.214 8.813 0 5.806-4.803 9.815-8.41 9.815-2.201 0-4.205-.801-5.81-1.604-1.603-1-4.006-1.603-6.612-1.603-3.204 0-8.41 2.003-11.819 8.414-1.2 2.203-2.002 5.81-2.002 6.41v42.065c0 6.21 1.405 8.213 5.61 8.213h9.416c1.201 0 1.401.602 1.401 1.803v3.606c0 1.202-.2 1.804-1.001 1.804-1.203 0-10.417-.602-21.234-.602-12.417 0-20.832.602-22.034.602-.802 0-1.202-.403-1.202-2.003v-3.407c0-1.401.4-1.803 2.203-1.803h7.815c3.003 0 4.406-1.201 4.406-3.807.2-6.608.2-13.62.2-24.036V80.47"/><path fill="none" stroke="#fff" stroke-width="3.9999000000000002" d="M70.124 34.92c.6-.444.936-.759 1.016-.945.084-.48.047-.837-.108-1.07-.318-.48-.835-.921-1.552-1.33-.717-.41-1.506-.565-2.375-.472-.862.093-1.724.422-2.578.99-1.8 1.195-2.796 2.827-2.986 4.898-.158 1.58.06 2.818.656 3.715l1.095-.724c.792-.526 3.068-2.213 6.832-5.062z"/><path fill="#84181d" d="M70.124 34.92c.6-.444.936-.759 1.016-.945.084-.48.047-.837-.108-1.07-.318-.48-.835-.921-1.552-1.33-.717-.41-1.506-.565-2.375-.472-.862.093-1.724.422-2.578.99-1.8 1.195-2.796 2.827-2.986 4.898-.158 1.58.06 2.818.656 3.715l1.095-.724c.792-.526 3.068-2.213 6.832-5.062"/><path fill="none" stroke="#fff" stroke-width="3.9999000000000002" d="M204.384 7.317h-49.908a252.11 252.11 0 0 1 2.477 4.946l3.074 6.677c.192.37.67 1.195 1.438 2.477l2.59-1.217c.368-.195 3.743-2.147 10.131-5.869.51-.267 3.227-1.785 8.147-4.552 1.47 1.733 2.604 3.367 3.406 4.892.875 1.673 1.648 3.775 2.318 6.298-2.195 1.711-3.916 2.896-5.166 3.547-.588.31-1.838.776-3.758 1.406l-5.73 3.002-2.04.932-5.118 3.1 21.836 42.214c4.2 8.193 7.03 13.192 8.494 15.005 1.463 1.803 3.336 3.283 5.62 4.427 2.112-.081 4.197-.657 6.254-1.735 1.982-1.039 3.358-1.993 4.12-2.862.462-.526 1.04-1.451 1.724-2.752V17.224c0-5.47-4.434-9.907-9.909-9.907z"/><path fill="#84181d" d="M204.384 7.317h-49.908a252.11 252.11 0 0 1 2.477 4.946l3.074 6.677c.192.37.67 1.195 1.438 2.477l2.59-1.217c.368-.195 3.743-2.147 10.131-5.869.51-.267 3.227-1.785 8.147-4.552 1.47 1.733 2.604 3.367 3.406 4.892.875 1.673 1.648 3.775 2.318 6.298-2.195 1.711-3.916 2.896-5.166 3.547-.588.31-1.838.776-3.758 1.406l-5.73 3.002-2.04.932-5.118 3.1 21.836 42.214c4.2 8.193 7.03 13.192 8.494 15.005 1.463 1.803 3.336 3.283 5.62 4.427 2.112-.081 4.197-.657 6.254-1.735 1.982-1.039 3.358-1.993 4.12-2.862.462-.526 1.04-1.451 1.724-2.752V17.224c0-5.47-4.434-9.907-9.909-9.907"/><path fill="none" stroke="#fff" stroke-width="3.9999000000000002" d="M80.787 45.743c-.626 1.38-1.39 2.587-2.286 3.626-.434.493-1.256 1.138-2.466 1.943a10.072 10.072 0 0 1-3.71 1.486c-2.034.367-4.007.094-5.92-.818-1.91-.91-3.583-2.443-5.014-4.601-.452-.685-.905-1.645-1.359-2.886-.454-1.24-.75-2.69-.883-4.342-.098-1.125.005-2.162.308-3.121.437-1.364.906-2.426 1.409-3.178.732-1.09 1.763-2.08 3.099-2.965 1.442-.96 2.799-1.476 4.064-1.552 1.703-.124 3.226.158 4.572.855 1.344.692 2.32 1.5 2.927 2.42l.217.323-9.29 6.254-1.77 1.175a31.02 31.02 0 0 0-2.126 1.548c.172.562.31.922.423 1.092l.179.217.155.233.73 1.158c.628.949 1.698 1.908 3.209 2.885 1.506.98 3.053 1.458 4.642 1.447 1.588-.015 3.227-.549 4.92-1.605.854-.63 1.487-1.212 1.902-1.731.415-.519.897-1.41 1.448-2.667l.767-2.484.755.834a3.193 3.193 0 0 1 .207.365c-.11 1.346-.482 2.71-1.11 4.09zM62.756 59.246c-.28.183-1.022.721-2.222 1.602a68.16 68.16 0 0 1-1.293.934l-.511.337c-.172-.092-.289-.178-.35-.273l-.14-.211c.034-.422.313-.878.84-1.357l1.181-1.255c.084-.279.084-.514.002-.704-.203-.447-1.46-2.486-3.767-6.138L55.4 50.43c-1.138-1.851-2.278-3.264-3.41-4.227-.764-.676-1.69-1.007-2.785-.985-1.094.024-2.145.37-3.156 1.042a6.56 6.56 0 0 0-2.026 2.108c-.338.608-.648 1.475-.932 2.6-.286 1.124-.414 2.008-.386 2.664.019.428.266 1.003.738 1.714l1.099 1.607 1.077 1.726c.094.14.756 1.09 1.993 2.855l.962 1.5 1.123 1.595c.169.22.306.375.409.462l3.805-1.386c.203-.065.522-.146.956-.224l.248.215c.052.078.097.231.136.458a46.503 46.503 0 0 1-1.01.705L52.41 66.04l-3.971 2.699-2.943 2.087c-.164.087-.406.228-.728.415l-.131-.148c-.083-.125-.123-.319-.124-.587 1.6-1.533 2.485-2.471 2.65-2.828.1-.219.02-.529-.239-.92l-1.039-1.517-1.785-2.739-4.64-6.898-1.69-2.6-1.22-1.834-1.426-2.302c-2.345-3.537-3.78-5.63-4.308-6.27-.528-.642-.948-.987-1.263-1.018-.61-.11-1.88.194-3.815.917l-.076-.112a4.702 4.702 0 0 1-.262-.5 8.02 8.02 0 0 0 .55-.534c.17-.18.344-.341.523-.476 1.496-1.753 2.497-3.159 3.007-4.206l1.143-.758c.317.41 1.243 1.776 2.777 4.091l1.94 2.972 2.554 3.802 3.03 4.77c.185.279.406.58.663.902.226-1.787.444-3.013.646-3.687a12.688 12.688 0 0 1 1.56-3.269 8.982 8.982 0 0 1 2.511-2.49c1.914-1.267 4.012-1.498 6.291-.69 1.328.484 2.567 1.59 3.718 3.325l1.505 2.42.9 1.312 1.433 2.361c1.201 1.947 1.92 3.1 2.157 3.456.268.403.646.935 1.13 1.597l1.528-.573c1.006-.403 1.802-.685 2.385-.852l.457.74zm-20.9 13.844c-.642.905-1.677 1.83-3.104 2.779-1.009.666-1.997.99-2.966.96-.97-.028-1.757-.297-2.365-.815-.608-.51-1.621-1.835-3.043-3.977l-3.38-5.303-1.692-2.499-.616-.928c-.29-.435-.592-.862-.91-1.272l-.413.237-1.863 1.336-.169.15c-.172.111-.328.155-.462.134a.433.433 0 0 1-.315-.197.723.723 0 0 1-.124-.565c.038-.193.27-.608.694-1.253.292-.438.547-1.071.77-1.9a9.23 9.23 0 0 0 .32-2.473c-.022-.437-.149-1.198-.384-2.296a28.996 28.996 0 0 1-.335-1.718l.736-.455 1.56 2.151 1.852 2.893c.305-.184.495-.296.573-.348.404-.265 1.153-.805 2.245-1.62a38.4 38.4 0 0 1 2.048-1.46c.31-.207.78-.51 1.413-.905.237.291.416.529.54.714.133.204.298.551.492 1.049l-.394.26-3.531 2.512-1.763 1.234-.39.324c.134.473.371.961.712 1.477l2.386 3.44 4.026 6.178c1.072 1.616 1.993 2.547 2.763 2.796.763.277 1.546.147 2.354-.388.403-.267 1.084-.893 2.037-1.885.288-.307.575-.865.862-1.68l.21-.137a.547.547 0 0 1 .423-.095c.142.027.259.11.351.248l.086.177c-.183 1.178-.595 2.216-1.234 3.12zm163.823 38.08c-6.83 3.578-13.51 4.323-20.041 2.228-6.526-2.096-12.172-7.692-16.94-16.794l-9.709-19.595-16.43-31.358-3.53 1.564-7.82 4.381-1.72.197c-.785-.421-1.33-.924-1.634-1.505-.229-.438-1.012-2.114-2.351-5.025 6.747-8.21 11.126-15.083 13.14-20.626 1.575-4.338 2.611-10.113 3.11-17.32H6.789v124.47c0 5.471 4.436 9.908 9.908 9.908h39.68c-1.764-2.283-3.2-4.46-4.28-6.521-2.5-4.771-4.312-10.73-5.43-17.871-1.119-7.137-.656-14.656 1.382-22.56 2.04-7.899 5.923-15.368 11.648-22.393 5.73-7.03 13.222-12.966 22.48-17.819 12.708-6.658 22.6-9.311 29.674-7.964 7.075 1.35 11.65 4.01 13.728 7.98 2.04 3.893 2.636 7.486 1.792 10.786-.85 3.296-3.034 5.872-6.56 7.717-3.013 1.58-6.305 2.042-9.88 1.386-3.573-.656-7.436-2.893-11.59-6.711-3.09-2.684-6.073-4.258-8.936-4.726-2.828-.39-5.673.164-8.538 1.666C74.96 68.282 70.339 74.475 68 83.237c-2.338 8.76-.829 18.25 4.52 28.46 6.428 12.267 14.86 20.282 25.302 24.027 10.44 3.757 19.882 3.422 28.333-1.005 4.187-2.195 7.499-4.535 9.938-7.035 1.489-1.625 3.238-4.363 5.242-8.217.501-1.013 1.195-3.395 2.088-7.14.895-3.747 1.515-6.271 1.864-7.574 1.519.044 2.632.025 3.335-.066 2.074-.15 3.914.058 5.52.623 1.866 8.385.385 17.258-4.446 26.622-1.794 3.483-4.082 6.73-6.825 9.763h61.513c5.475 0 9.91-4.437 9.91-9.908V105a37.867 37.867 0 0 1-8.615 6.169z"/><path fill="#84181d" d="M80.787 45.743c-.626 1.38-1.39 2.587-2.286 3.626-.434.493-1.256 1.138-2.466 1.943a10.072 10.072 0 0 1-3.71 1.486c-2.034.367-4.007.094-5.92-.818-1.91-.91-3.583-2.443-5.014-4.601-.452-.685-.905-1.645-1.359-2.886-.454-1.24-.75-2.69-.883-4.342-.098-1.125.005-2.162.308-3.121.437-1.364.906-2.426 1.409-3.178.732-1.09 1.763-2.08 3.099-2.965 1.442-.96 2.799-1.476 4.064-1.552 1.703-.124 3.226.158 4.572.855 1.344.692 2.32 1.5 2.927 2.42l.217.323-9.29 6.254-1.77 1.175a31.02 31.02 0 0 0-2.126 1.548c.172.562.31.922.423 1.092l.179.217.155.233.73 1.158c.628.949 1.698 1.908 3.209 2.885 1.506.98 3.053 1.458 4.642 1.447 1.588-.015 3.227-.549 4.92-1.605.854-.63 1.487-1.212 1.902-1.731.415-.519.897-1.41 1.448-2.667l.767-2.484.755.834a3.193 3.193 0 0 1 .207.365c-.11 1.346-.482 2.71-1.11 4.09zM62.756 59.246c-.28.183-1.022.721-2.222 1.602a68.16 68.16 0 0 1-1.293.934l-.511.337c-.172-.092-.289-.178-.35-.273l-.14-.211c.034-.422.313-.878.84-1.357l1.181-1.255c.084-.279.084-.514.002-.704-.203-.447-1.46-2.486-3.767-6.138L55.4 50.43c-1.138-1.851-2.278-3.264-3.41-4.227-.764-.676-1.69-1.007-2.785-.985-1.094.024-2.145.37-3.156 1.042a6.56 6.56 0 0 0-2.026 2.108c-.338.608-.648 1.475-.932 2.6-.286 1.124-.414 2.008-.386 2.664.019.428.266 1.003.738 1.714l1.099 1.607 1.077 1.726c.094.14.756 1.09 1.993 2.855l.962 1.5 1.123 1.595c.169.22.306.375.409.462l3.805-1.386c.203-.065.522-.146.956-.224l.248.215c.052.078.097.231.136.458a46.503 46.503 0 0 1-1.01.705L52.41 66.04l-3.971 2.699-2.943 2.087c-.164.087-.406.228-.728.415l-.131-.148c-.083-.125-.123-.319-.124-.587 1.6-1.533 2.485-2.471 2.65-2.828.1-.219.02-.529-.239-.92l-1.039-1.517-1.785-2.739-4.64-6.898-1.69-2.6-1.22-1.834-1.426-2.302c-2.345-3.537-3.78-5.63-4.308-6.27-.528-.642-.948-.987-1.263-1.018-.61-.11-1.88.194-3.815.917l-.076-.112a4.702 4.702 0 0 1-.262-.5 8.02 8.02 0 0 0 .55-.534c.17-.18.344-.341.523-.476 1.496-1.753 2.497-3.159 3.007-4.206l1.143-.758c.317.41 1.243 1.776 2.777 4.091l1.94 2.972 2.554 3.802 3.03 4.77c.185.279.406.58.663.902.226-1.787.444-3.013.646-3.687a12.688 12.688 0 0 1 1.56-3.269 8.982 8.982 0 0 1 2.511-2.49c1.914-1.267 4.012-1.498 6.291-.69 1.328.484 2.567 1.59 3.718 3.325l1.505 2.42.9 1.312 1.433 2.361c1.201 1.947 1.92 3.1 2.157 3.456.268.403.646.935 1.13 1.597l1.528-.573c1.006-.403 1.802-.685 2.385-.852l.457.74zm-20.9 13.844c-.642.905-1.677 1.83-3.104 2.779-1.009.666-1.997.99-2.966.96-.97-.028-1.757-.297-2.365-.815-.608-.51-1.621-1.835-3.043-3.977l-3.38-5.303-1.692-2.499-.616-.928c-.29-.435-.592-.862-.91-1.272l-.413.237-1.863 1.336-.169.15c-.172.111-.328.155-.462.134a.433.433 0 0 1-.315-.197.723.723 0 0 1-.124-.565c.038-.193.27-.608.694-1.253.292-.438.547-1.071.77-1.9a9.23 9.23 0 0 0 .32-2.473c-.022-.437-.149-1.198-.384-2.296a28.996 28.996 0 0 1-.335-1.718l.736-.455 1.56 2.151 1.852 2.893c.305-.184.495-.296.573-.348.404-.265 1.153-.805 2.245-1.62a38.4 38.4 0 0 1 2.048-1.46c.31-.207.78-.51 1.413-.905.237.291.416.529.54.714.133.204.298.551.492 1.049l-.394.26-3.531 2.512-1.763 1.234-.39.324c.134.473.371.961.712 1.477l2.386 3.44 4.026 6.178c1.072 1.616 1.993 2.547 2.763 2.796.763.277 1.546.147 2.354-.388.403-.267 1.084-.893 2.037-1.885.288-.307.575-.865.862-1.68l.21-.137a.547.547 0 0 1 .423-.095c.142.027.259.11.351.248l.086.177c-.183 1.178-.595 2.216-1.234 3.12zm163.823 38.08c-6.83 3.578-13.51 4.323-20.041 2.228-6.526-2.096-12.172-7.692-16.94-16.794l-9.709-19.595-16.43-31.358-3.53 1.564-7.82 4.381-1.72.197c-.785-.421-1.33-.924-1.634-1.505-.229-.438-1.012-2.114-2.351-5.025 6.747-8.21 11.126-15.083 13.14-20.626 1.575-4.338 2.611-10.113 3.11-17.32H6.789v124.47c0 5.471 4.436 9.908 9.908 9.908h39.68c-1.764-2.283-3.2-4.46-4.28-6.521-2.5-4.771-4.312-10.73-5.43-17.871-1.119-7.137-.656-14.656 1.382-22.56 2.04-7.899 5.923-15.368 11.648-22.393 5.73-7.03 13.222-12.966 22.48-17.819 12.708-6.658 22.6-9.311 29.674-7.964 7.075 1.35 11.65 4.01 13.728 7.98 2.04 3.893 2.636 7.486 1.792 10.786-.85 3.296-3.034 5.872-6.56 7.717-3.013 1.58-6.305 2.042-9.88 1.386-3.573-.656-7.436-2.893-11.59-6.711-3.09-2.684-6.073-4.258-8.936-4.726-2.828-.39-5.673.164-8.538 1.666C74.96 68.282 70.339 74.475 68 83.237c-2.338 8.76-.829 18.25 4.52 28.46 6.428 12.267 14.86 20.282 25.302 24.027 10.44 3.757 19.882 3.422 28.333-1.005 4.187-2.195 7.499-4.535 9.938-7.035 1.489-1.625 3.238-4.363 5.242-8.217.501-1.013 1.195-3.395 2.088-7.14.895-3.747 1.515-6.271 1.864-7.574 1.519.044 2.632.025 3.335-.066 2.074-.15 3.914.058 5.52.623 1.866 8.385.385 17.258-4.446 26.622-1.794 3.483-4.082 6.73-6.825 9.763h61.513c5.475 0 9.91-4.437 9.91-9.908V105a37.867 37.867 0 0 1-8.615 6.169"/><path fill="none" stroke="#84181d" stroke-width="4.24496054" d="M2.122 2.13h204.376c6.826 0 13.047 5.139 13.047 13.33v117.78c0 7.521-5.777 13.33-14.38 13.33H15.17c-8.62 0-13.049-6.443-13.049-13.315z"/></svg>
