<?xml version="1.0" encoding="iso-8859-1"?>
<!-- Generator: Adobe Illustrator 18.0.0, SVG Export Plug-In . SVG Version: 6.00 Build 0)  -->
<!DOCTYPE svg PUBLIC "-//W3C//DTD SVG 1.1//EN" "http://www.w3.org/Graphics/SVG/1.1/DTD/svg11.dtd">
<svg version="1.1" id="Capa_1" xmlns="http://www.w3.org/2000/svg" xmlns:xlink="http://www.w3.org/1999/xlink" x="0px" y="0px"
	 viewBox="0 0 380 380" style="enable-background:new 0 0 380 380;" xml:space="preserve">
<g>
	<path d="M360.883,38.244c-11.304-16.61-35.098-35.59-60.628-37.999c-14.622-1.376-27.511,3.057-37.276,12.823l-0.533,0.531
		l-0.435,0.614c0,0-20.663,28.216-63.077,74.033c9.576-21.609,12.301-46.467-9.488-61.028c-14.148-9.53-36.101-11.824-50.667-2.75
		c-30.144,18.738-16.119,63.833-1.832,88.03c0.418,0.708,1.082,1.841,1.927,3.237c-1.395-0.845-2.529-1.508-3.237-1.926
		c-24.196-14.287-69.291-28.312-88.029,1.831c-9.074,14.567-6.78,36.519,2.749,50.667c14.598,21.845,39.545,19.05,61.192,9.415
		c-51.306,47.931-90.832,79.692-90.832,79.692l-0.219,0.177c-24.338,20.487-25.529,52.298-3.142,83.039
		c10.8,14.833,25.963,27.509,41.602,34.78c18.144,8.442,35.023,8.781,47.523,0.962c3.619-2.266,7.037-4.519,9.464-7.443
		c30.394-36.593-33.22-82.512-59.55-84.895c-5.721-0.52-12.439,0.754-15.306,5.566c-6.161,10.36,0.414,25.148,10.683,35.417
		c26.444,26.443,49.249,21.109,49.249,21.109c-17.63,10.403-40.482,5.626-58.219-12.168c-13.721-13.771-23.111-35.156-13.157-51.893
		c2.95-4.967,10.637-12.836,28.911-9.676c30.922,5.351,73.995,39.049,80.503,70.883l7.281-10.936
		c25.243-37.899,55.994-73.07,86.529-103.798c-0.194-0.252-0.394-0.498-0.569-0.771c-24.672-38.427-58.276-65.889-74.772-78.007
		l15.793-15.913c18.024,13.558,50.6,41.065,75.645,78.86c40.629-39.053,79.056-69.558,101.463-87.343
		c9.466-7.512,15.178-12.048,17.757-14.624C384.238,92.686,381.783,68.966,360.883,38.244z M112.78,147.961
		c-7.627,1.82-22.823,7.726-32.342,1.475c-6.029-3.96-9.573-25.745,36.191-18.146c11.216,1.862,22.597,3.563,33.533,6.706
		C137.629,141.042,125.326,144.967,112.78,147.961z M171.1,89.641c-2.994,12.547-6.919,24.85-9.965,37.383
		c-3.142-10.936-4.843-22.317-6.706-33.533c-7.6-45.764,14.186-42.221,18.146-36.191C178.826,66.818,172.92,82.013,171.1,89.641z"/>
	<path d="M189.447,27.218C192.117,29.003,186.777,25.42,189.447,27.218L189.447,27.218z"/>
	<path d="M50.357,166.307C48.559,163.638,52.142,168.978,50.357,166.307L50.357,166.307z"/>
</g>
<g>
</g>
<g>
</g>
<g>
</g>
<g>
</g>
<g>
</g>
<g>
</g>
<g>
</g>
<g>
</g>
<g>
</g>
<g>
</g>
<g>
</g>
<g>
</g>
<g>
</g>
<g>
</g>
<g>
</g>
</svg>
