<?xml version="1.0" encoding="iso-8859-1"?>
<!-- Uploaded to: SVG Repo, www.svgrepo.com, Generator: SVG Repo Mixer Tools -->
<svg version="1.1" id="Layer_1" xmlns="http://www.w3.org/2000/svg" xmlns:xlink="http://www.w3.org/1999/xlink" 
	 viewBox="0 0 481.882 481.882" xml:space="preserve">
<g>
	<g>
		<path d="M265.135,58.467c-9.191,0-16.665,8.073-16.665,17.992v286.934c4.875-3.184,10.606-5.015,16.665-5.015h177.037V58.467
			H265.135z M423.742,321.591H266.9v-15.059h156.842V321.591z M423.742,279.548H266.9v-15.059h156.842V279.548z M423.742,237.504
			H266.9v-15.059h156.842V237.504z M423.742,195.452H266.9v-15.059h156.842V195.452z M423.742,153.408H266.9v-15.059h156.842
			V153.408z M423.742,111.357H266.9V96.298h156.842V111.357z"/>
	</g>
</g>
<g>
	<g>
		<path d="M216.746,58.467H39.709v299.912h177.037c6.059,0,11.79,1.83,16.666,5.015V76.459
			C233.412,66.54,225.937,58.467,216.746,58.467z M214.981,321.591H58.139v-15.059h156.842V321.591z M214.981,279.548H58.139
			v-15.059h156.842V279.548z M214.981,237.504H58.139v-15.059h156.842V237.504z M214.981,195.452H58.139v-15.059h156.842V195.452z
			 M214.981,153.408H58.139v-15.059h156.842V153.408z M214.981,111.357H58.139V96.298h156.842V111.357z"/>
	</g>
</g>
<g>
	<g>
		<path d="M478.823,86.65h-21.592v279.258c0,4.161-3.371,7.529-7.529,7.529H265.135c-8.143,0-15.188,6.603-16.385,15.368
			c-0.508,3.728-3.695,6.508-7.46,6.508c-0.061,0-0.115-0.033-0.176-0.035c-0.061,0.002-0.111,0.035-0.172,0.035
			c-3.765,0-7.302-2.78-7.81-6.508c-1.198-8.765-8.242-15.368-16.385-15.368H32.18c-4.158,0-7.529-3.368-7.529-7.529V86.65H3.058
			C1.371,86.65,0,88.018,0,89.702v310.419c0,1.684,1.371,3.059,3.058,3.059h211.257c3.364,0,6.32,2.235,7.242,5.47
			c2.471,8.691,10.442,14.765,19.383,14.765s16.911-6.074,19.382-14.765c0.922-3.235,3.878-5.47,7.243-5.47h211.257
			c1.687,0,3.059-1.375,3.059-3.059V89.702C481.882,88.018,480.51,86.65,478.823,86.65z"/>
	</g>
</g>
</svg>