<svg id="Layer_1" data-name="Layer 1" xmlns="http://www.w3.org/2000/svg" viewBox="0 0 122.88 84.29"><defs><style>.cls-1{fill-rule:evenodd;}</style></defs><title>phd</title><path class="cls-1" d="M104.27,71.32l-.54-34.17L70.88,46.64a41.39,41.39,0,0,1-8.74,1,42.17,42.17,0,0,1-9.06-1L21.7,37.05V71.5C22.6,82,52.81,83.81,62.07,84.25c7.43.36,36.78-2.08,40.64-8.13a11,11,0,0,0,1.56-4.8Zm13.32-46.83V48.92h.77a1,1,0,0,1,1,1v6.57a1,1,0,0,1-1,.95h-.77v2.3a2.13,2.13,0,0,1,1.72,2.08h0a2.12,2.12,0,0,1-2.12,2.12H113.4a2.13,2.13,0,0,1-2.12-2.12h0A2.13,2.13,0,0,1,113,59.7V57.4h-.77a1,1,0,0,1-1-.95V49.88a1,1,0,0,1,1-1H113v-23L73,38.35a44.84,44.84,0,0,1-21.72,0L7.18,25.18,3.19,24c-5-2-3.72-6.8.9-7.9L54,1.19a25.66,25.66,0,0,1,15.44,0l49,14.72c5.33,1.3,6.39,6.23.18,8.26l-1,.32ZM46.54,57a6.76,6.76,0,0,1,4.71,1.5,5.56,5.56,0,0,1,1.64,4.29,7.07,7.07,0,0,1-1,3.81A6.81,6.81,0,0,1,49,69.18a9.51,9.51,0,0,1-4.27.91H43.36l.2,5.15H37.91l.28-5.34-.28-12.85,8.63,0Zm-1,9.14a2.71,2.71,0,0,0,1.11-1.09,3.61,3.61,0,0,0,.35-1.7,2.45,2.45,0,0,0-.59-1.81,2.79,2.79,0,0,0-1.86-.63l-1,.08-.11,5,2.11.12Zm17,9.08.29-7.42c0-1.15-.44-1.72-1.32-1.72a2.64,2.64,0,0,0-1.33.39l-.05,2.84.22,5.91H54.86l.25-5.34-.19-14,5.45-.37-.14,8.38h.14a8.26,8.26,0,0,1,3.29-2.08,4.8,4.8,0,0,1,3.22,1,3.26,3.26,0,0,1,1.05,2.75l-.11,3.82.2,5.91Zm17.21-18.3a8.25,8.25,0,0,1,6.17,2.18,8.57,8.57,0,0,1,2.15,6.28q0,4.86-2.5,7.48t-7.17,2.61q-2.92,0-6.86-.25l.28-5.34-.28-12.85,8.21-.11ZM79.46,71.3a2.26,2.26,0,0,0,2-1,6.61,6.61,0,0,0,.68-3.47,14.54,14.54,0,0,0-.28-3.24,3,3,0,0,0-.9-1.7,2.61,2.61,0,0,0-1.71-.52,21,21,0,0,0-2.11.11L77,69.33,77,71.08a20.69,20.69,0,0,0,2.45.22Z"/></svg>